<?xml version="1.0" encoding="UTF-8"?><svg id="d" xmlns="http://www.w3.org/2000/svg" xmlns:xlink="http://www.w3.org/1999/xlink" viewBox="0 0 350 56.88" width="350" height="56.88"><defs><style>.f{fill:none;}.g{clip-path:url(#e);}.h{fill:#b9770e;}</style><clipPath id="e"><rect class="f" width="350" height="56.88"/></clipPath></defs><g class="g"><path class="h" d="M11.49,36.87H0v20h11.49v-20ZM11.49,0H0v34.22h11.49V0ZM23.61,0h-9.46v11.47h5.48v11.22h-5.48v11.47h5.48v11.22h-5.48v11.47h9.46c1.03-1.03,1.94-1.94,2.74-2.73,1.41-1.38,3-2.97,4.77-4.76v-15.16c-.78-.8-1.48-1.5-2.12-2.11-1.08-1.08-2.29-2.31-3.66-3.69,1.08-1.08,2.04-2.03,2.89-2.88.84-.84,1.81-1.8,2.89-2.88V7.46c-1.77-1.77-3.36-3.36-4.77-4.76C25.54,1.89,24.63,1,23.61,0ZM49.79,0h-11.49v49.37c1.03,1.03,1.94,1.94,2.74,2.73,1.38,1.41,2.97,3,4.77,4.76h6.91v-11.47h-2.94V0M69.41,0h-11.49v45.39h-2.54v11.47h6.52c1.03-1.03,1.94-1.94,2.74-2.73,1.41-1.38,3-2.97,4.77-4.76V0ZM88.09,28.92h-11.49v27.95h11.49v-27.95ZM88.09,0h-11.49v26.27h11.49V0ZM121.62,45.39h-12.08v11.47h12.08v-11.47ZM106.76,45.33h-11.49v11.54h11.61v-11.47h-.12v-.07ZM106.76,0h-11.49v42.68h11.49V0ZM141.7,14.12h-11.49v42.74h11.49V14.12ZM149.67,0h-27.38v11.47h27.38V0ZM185.89,36.85h-11.49v8.56h-8.13v-4.06h-11.49v8.03c1.03,1.03,1.94,1.94,2.74,2.73,1.38,1.41,2.97,3,4.77,4.76h16.09c1.03-1.03,1.94-1.94,2.74-2.73,1.41-1.38,3-2.97,4.77-4.76v-12.52M168.56,0h-6.27c-1.8,1.77-3.39,3.36-4.77,4.76-.81.8-1.72,1.7-2.74,2.7v19.22c1.03,1.03,1.94,1.94,2.74,2.73,1.38,1.38,2.97,2.97,4.77,4.76h12.11v.03h11.49v-4.04c-1.77-1.77-3.36-3.36-4.77-4.76-.81-.8-1.72-1.7-2.74-2.7h-12.11v-11.22h2.29V0M178.39,0h-7.17v11.47h3.19v4.72h11.49V7.45c-1.77-1.77-3.36-3.36-4.77-4.76-.81-.8-1.72-1.7-2.74-2.7M238.25,2.97l-11.49,32v21.9h11.49V2.97ZM193.08,2.96v53.91h11.49v-21.91l-11.49-32ZM236.5,0h-12.19l-8.67,24.07L206.98,0h-12.14l14.96,41.67h11.74l.34-.92L236.5,0ZM278.95,45.42h-11.26l2.06,11.45h11.24l-2.04-11.45M270.87,0h-16.63l-5.08,28.56h11.25l2.17-12.94,2.58,15.57h-2.58v.02h-13.89l-4.57,25.67h11.29l2.49-14.08h5.24v-.02h15.35L270.87,0ZM298.26,36.8h-11.49v20.06h11.49v-20.06ZM298.31,0h-11.55v34.15h11.55v-11.45h-.06v-11.22h.06V0ZM310.37,0h-9.4v11.47h5.42v11.22h-5.42v11.45h3.74v.02h1.67v22.7h11.49v-22.66c-1.38-1.38-2.61-2.61-3.69-3.69-.61-.64-1.3-1.34-2.07-2.11l5.76-5.75V7.46c-1.03-.99-1.94-1.89-2.74-2.7-1.38-1.41-2.97-3-4.77-4.76ZM342.03,14.12h-11.49v42.74h11.49V14.12ZM350,0h-27.38v11.47h27.38V0Z"/></g></svg>

