<?xml version="1.0" encoding="UTF-8"?><svg id="a" xmlns="http://www.w3.org/2000/svg" viewBox="0 0 512 512"><defs><style>.b{fill:#eab308;}</style></defs><path class="b" d="M116.17,462.62v49.38h49.38l-49.38-49.38M395.83,333.27h-103.28v75.45h-73.12v-23.76h-103.28v41.44l85.6,85.6h126.6l67.47-67.47v-111.26M116.17,258.26v101.1h103.28v-26.09h-28.27l-75-75.01M395.83,159.08h-103.28v19.67h10.47l59,59,33.8-33.75v-44.92M165.49,0h-49.33v49.06L165.49,0M219.44,0h-17.63l-85.64,85.17v136.88l85.63,85.63h193.72l-51.67-51.77.06-.06-51.5-51.5h-12.83v-.02h-60.15v-71.44h0V0M328.37,0h-83.33v103.28h47.52v30.21h103.28v-66.33L328.37,0"/></svg>

